<?xml version="1.0" encoding="utf-8"?>
<!-- Generator: Adobe Illustrator 27.4.1, SVG Export Plug-In . SVG Version: 6.00 Build 0)  -->
<svg version="1.1" id="_Слой_1" xmlns="http://www.w3.org/2000/svg" xmlns:xlink="http://www.w3.org/1999/xlink" x="0px"
	 y="0px" viewBox="0 0 1053.2 126.6" style="enable-background:new 0 0 1053.2 126.6;" xml:space="preserve">
<style type="text/css">
	.st0{fill:#FFFFFF;}
	.st1{fill:none;stroke:#1D1D1B;stroke-miterlimit:10;}
	.st2{fill:#1D1D1B;}
	.st3{font-family:'CenturyGothic-Bold';}
	.st4{font-size:51.24px;}
</style>
<g>
	<path class="st0" d="M315.7,3.9c25.8,0,46.7,20.9,46.7,46.7s-20.9,46.7-46.7,46.7S269,76.5,269,50.7c0-12.8,5.2-24.5,13.5-32.9
		C291,9.2,302.7,3.9,315.7,3.9z"/>
	<path class="st1" d="M362.4,50.7c0,25.8-20.9,46.7-46.7,46.7S269,76.5,269,50.7c0-12.8,5.2-24.5,13.5-32.9
		c8.5-8.5,20.2-13.8,33.2-13.8C341.5,3.9,362.4,24.8,362.4,50.7z"/>
</g>
<path class="st1" d="M292.2,10.3c3.9,2.9,9.4,7.7,14.2,14.9c6.7,10.2,8.7,20,9.3,25.5"/>
<path class="st1" d="M358.6,69.2c-2.3,0.8-14.4,4.6-27.1-1.8c-10.2-5.2-14.6-14-15.9-16.7"/>
<path class="st1" d="M303.3,21c-2.6-0.5-11-1.6-19.8,3c-7.3,3.9-10.9,9.7-12.3,12.1"/>
<path class="st1" d="M310,31.6c-4.1-0.4-12.2-0.7-21.3,2.9c-11,4.4-17.3,11.9-19.8,15.3"/>
<path class="st1" d="M314.2,42.9c-3.2-0.7-14.6-2.9-26.7,3.2c-10.3,5.2-15.3,13.4-17,16.5l5.2,12.1c1.1-2.9,6-14.2,18.5-20.4
	c9.3-4.6,17.9-4.1,21.5-3.7"/>
<path class="st1" d="M280.4,66.1c2.7,4.6,9,13.7,20.5,20.7c11.7,7.1,22.8,8.4,28.1,8.6"/>
<path class="st1" d="M350.9,81c-4,0.6-19,2.3-33.6-7c-11.5-7.3-16.6-17.4-18.5-21.6L288.3,58c2.3,4.9,7,12.8,15.8,19.6
	c16,12.2,33.8,11.4,38.8,11L350.9,81z"/>
<path class="st1" d="M328,65.4c3.9-2.1,10.6-6.4,16-14.2c8.5-12.1,8.6-24.8,8.5-29.3"/>
<path class="st1" d="M339,70.1c3.1-1.6,10.1-5.6,15.4-14c5.1-8.2,5.8-16.2,5.8-19.6"/>
<path class="st1" d="M319.4,56.8c3.9-2.3,11.7-7.7,17.5-17.8c6.4-11,6.8-21.5,6.7-26"/>
<path class="st1" d="M314.5,44c3.1-2.6,8.1-7.4,11.8-15c4.7-9.6,4.7-18.4,4.4-22.6"/>
<path class="st1" d="M540.5,58c2-1.7,5.7-5.4,8.1-11.3c2.5-6,2.4-11.3,2.1-14"/>
<text transform="matrix(1 0 0 1 362.4379 73.39)" class="st2 st3 st4">VOLLEYSHOP.COM</text>
</svg>
