<?xml version="1.0" encoding="UTF-8"?>
<svg id="_Слой_1" data-name="Слой 1" xmlns="http://www.w3.org/2000/svg" viewBox="0 0 208.46 174.44">
  <defs>
    <style>
      .cls-1 {
        fill: #fff;
      }

      .cls-2 {
        fill: #486848;
      }
    </style>
  </defs>
  <g id="_Слой_4" data-name="Слой 4">
    <path class="cls-2" d="m75.16,82.94c-.6,5.5-1.8,10.5-5.4,14-14.1,13.7-12,9.8-18.4,12.7-3.5,1.6-8.3,1.6-12.5,1.5h-.2c.1,0,.2,0,.2-.1v-19.9c.3-.1.5-.3.7-.5l15.4-14.9c.9-.9.9-2.3,0-3.2-.9-.9-2.4-.9-3.3,0l-12.8,12.4v-39.7c0-1-.8-1.9-1.9-1.9-1.2,0-2.2,1-2.3,2.2v24.2l-7.4-6.5c-.4-.4-1-.6-1.5-.6-.6,0-1.3.3-1.8.7-.8.9-.8,2.3.2,3.2l9.9,8.7c.2.2.4.3.6.4v35.3h-1.2c-8,0-19.1-4.5-25.8-12C1.46,91.94,1.56,87.84.06,75.24c-.4-3.6,1.2-12.1,2.4-17.3,2.7-11.8,4-18.6,9-31.5C14.26,19.34,23.86,2.54,37.86.04c1.4-.2,6.1.4,8.7,2.4,1.7,1.3,2.7,2.3,6.2,6.3,2.3,2.7,11.5,11.9,19.4,46.9,4.9,21.6,3.8,19.6,3,27.3Z"/>
    <path class="cls-1" d="m38.86,111.04h0c-.1.1-.2.1-.2.1q.1-.1.2-.1Z"/>
    <path class="cls-1" d="m54.96,75.74l-15.4,14.9c-.2.2-.4.4-.7.5v19.9q-.1,0-.2.1c-1.4-.1-2.8-.1-4-.1v-35.4c-.2-.1-.4-.2-.6-.4l-9.9-8.7c-1-.9-1-2.3-.2-3.2.5-.5,1.1-.7,1.8-.7.6,0,1.1.2,1.5.6l7.4,6.5v-24.2c.1-1.2,1.1-2.2,2.3-2.2,1.1,0,1.9.9,1.9,1.9v39.7l12.8-12.4c.9-.9,2.4-.9,3.3,0s.9,2.3,0,3.2Z"/>
    <path class="cls-2" d="m208.46,130.04c0,.5-.3,1-.7,1.4s-.9.6-1.4.6H4.16c-1.1,0-1.9-.9-1.9-2,0-.6.2-1.1.6-1.4.3-.4.8-.6,1.3-.6h32.1c-.4-.1-.7-.3-1-.6-.2-.3-.5-.6-.6-.9h0c-.1-.2-.1-.5-.1-.7v-14.9c1.2,0,2.5.1,4,.1h.2v15.4c0,.5-.1,1.1-.4,1.5h69c-3.6-.6-6.4-3.7-6.4-7.5v-57.3c0-4.2,3.4-7.6,7.6-7.6h65.1c4.2,0,7.6,3.4,7.6,7.6v57.4c0,3.8-2.8,6.9-6.4,7.5h31.5c1.2,0,2.1.9,2.1,2Z"/>
    <path class="cls-2" d="m198.86,62.64c-2.9,3.3-7.8,3.6-11,.7l-45.9-40.4-46,40.4c-3.3,2.9-8.2,2.6-11-.7-2.8-3.2-2.5-8.1.7-11L136.76,6.74c.1-.1.2-.1.3-.2,0,0,.1,0,.1-.1.3-.3.7-.5,1.1-.7h0c.8-.4,1.6-.7,2.5-.8.1,0,.3,0,.4-.1h1.5c.1,0,.3,0,.4.1.9.1,1.7.4,2.5.8h0c.4.2.7.4,1.1.7,0,0,.1,0,.1.1.1.1.2.1.3.2l51.1,44.9c3.2,2.9,3.5,7.8.7,11Z"/>
    <path class="cls-2" d="m36.26,128.04h-1.1c-.3-.4-.4-.9-.4-1.5.1.4.3.7.6.9.2.3.5.5.9.6Z"/>
    <path class="cls-2" d="m38.86,111.04h0c-.1.1-.2.1-.2.1q.1-.1.2-.1Z"/>
    <g>
      <path class="cls-2" d="m19.66,161.84h-1.6c-.1-.6-.2-1.5-.2-3.5-1.2,2.7-3.3,3.8-6.7,3.8-5.8,0-8.5-5-8.5-11.3s3.2-11.5,9.3-11.5c4.4,0,7,2.3,7.8,6.3h-1.9c-.8-2.9-2.5-4.6-5.9-4.6-4.9,0-7.2,4.2-7.2,9.8,0,5,2,9.6,6.7,9.6,5.4,0,6.3-3.7,6.3-8.4v-.1h-6.2v-1.8h8.2c-.1,1-.1,11.6-.1,11.7Z"/>
      <path class="cls-2" d="m28.06,151.34v10.5h-2v-22.2h7.3c3.8,0,6.4,1.9,6.4,5.6,0,3.3-2,4.7-3.7,5.2,2.4.7,3.4,2.6,3.4,5.7v.3c0,2.1,0,4.1.3,5.4h-2c-.3-.9-.4-3.2-.4-5.3v-.4c0-3.4-1.2-4.8-5.2-4.8h-4.1Zm0-1.7h4.4c3.2,0,5.3-.9,5.3-4.3,0-2.5-1.6-4-4.6-4h-5.1v8.3h0Z"/>
      <path class="cls-2" d="m57.76,151.04h-10.1v9.1h11.1l-.3,1.7h-12.7v-22.2h12.5v1.7h-10.6v7.9h10.1v1.8h0Z"/>
      <path class="cls-2" d="m76.06,151.04h-10.2v9.1h11.1l-.3,1.7h-12.7v-22.2h12.6v1.7h-10.7v7.9h10.1v1.8h.1Z"/>
      <path class="cls-2" d="m82.16,161.84v-22.2h2.7c9.9,16.7,11.1,18.8,11.6,19.8h0c-.2-3.1-.2-6.6-.2-10.2v-9.5h1.9v22.2h-2.4c-10.5-18-11.2-19.2-11.7-20.2h0c.2,2.9.1,6.6.1,10.5v9.7l-2-.1h0Z"/>
      <path class="cls-2" d="m114.06,139.64h7.1c4.1,0,6.9,2.1,6.9,5.9,0,4.2-2.9,6.3-7.2,6.3h-4.8v10h-2v-22.2h0Zm2,10.5h4.8c3.1,0,5.2-1,5.2-4.5,0-2.9-2.1-4.3-5.2-4.3h-4.7l-.1,8.8h0Z"/>
      <path class="cls-2" d="m133.16,139.64h2v20.4h11l-.3,1.7h-12.6l-.1-22.1h0Z"/>
      <path class="cls-2" d="m152.66,154.44l-2.4,7.4h-2c2.1-6.3,5-15,7.4-22.2h2.4l7.7,22.2h-2.1l-2.5-7.4h-8.5Zm8-1.8c-2.1-6.2-3.4-9.6-3.8-11.2h-.1c-.6,2.7-1.9,6.1-3.6,11.2h7.5Z"/>
      <path class="cls-2" d="m185.76,155.64c-.7,3.4-2.9,6.5-7.9,6.5-6.3,0-8.7-4.9-8.7-11.6,0-5.6,2.6-11.2,8.9-11.2,4.7,0,7.1,2.8,7.7,6.6h-2c-.6-2.9-2.3-4.9-5.7-4.9-4.7,0-6.7,4.5-6.7,9.5s1.5,9.9,6.7,9.9c3.4,0,5-1.9,5.8-4.8h1.9Z"/>
      <path class="cls-2" d="m203.16,151.04h-10.1v9.1h11.1l-.3,1.7h-12.8v-22.2h12.5v1.7h-10.6v7.9h10.1l.1,1.8h0Z"/>
    </g>
    <path class="cls-2" d="m206.36,174.44H4.16c-1.1,0-1.9-.9-1.9-2h0c0-1.1.9-2,1.9-2h202.3c1.1,0,2,.9,2,2h0c-.1,1.1-1,2-2.1,2Z"/>
  </g>
</svg>