<?xml version="1.0" encoding="utf-8"?>
<!-- Generator: Adobe Illustrator 27.4.1, SVG Export Plug-In . SVG Version: 6.00 Build 0)  -->
<svg version="1.1" id="_Слой_1" xmlns="http://www.w3.org/2000/svg" xmlns:xlink="http://www.w3.org/1999/xlink" x="0px"
	 y="0px" viewBox="0 0 553 94.5" style="enable-background:new 0 0 553 94.5;" xml:space="preserve">
<style type="text/css">
	.st0{fill:#FFFFFF;}
	.st1{fill:none;stroke:#1D1D1B;stroke-miterlimit:10;}
	.st2{font-family:'CenturyGothic-Bold';}
	.st3{font-size:51.24px;}
</style>
<g>
	<path class="st0" d="M47.2,0.5C73,0.5,94,21.4,94,47.2S73,94,47.2,94S0.5,73,0.5,47.2c0-12.8,5.2-24.4,13.5-32.9
		C22.5,5.8,34.2,0.5,47.2,0.5z"/>
	<path class="st1" d="M94,47.2C94,73,73,94,47.2,94S0.5,73,0.5,47.2c0-12.8,5.2-24.5,13.5-32.9C22.5,5.8,34.2,0.5,47.2,0.5
		C73,0.5,94,21.4,94,47.2z"/>
</g>
<path class="st1" d="M23.7,6.8c3.9,2.9,9.4,7.7,14.2,14.9c6.7,10.1,8.7,20,9.3,25.5"/>
<path class="st1" d="M90.2,65.7c-2.3,0.8-14.4,4.6-27.1-1.8c-10.2-5.2-14.6-14-15.9-16.7"/>
<path class="st1" d="M34.8,17.6c-2.6-0.5-11-1.6-19.8,3C7.8,24.5,4.1,30.3,2.8,32.7"/>
<path class="st1" d="M41.6,28.2c-4.1-0.4-12.2-0.7-21.3,2.9C9.3,35.4,3,43,0.5,46.4"/>
<path class="st1" d="M45.8,39.5c-3.2-0.7-14.6-2.9-26.7,3.2C8.8,47.9,3.8,56.1,2.1,59.2l5.2,12.1c1.1-2.9,6-14.2,18.5-20.5
	c9.3-4.6,17.9-4.1,21.5-3.7"/>
<path class="st1" d="M12,62.7c2.7,4.6,8.9,13.7,20.5,20.7c11.7,7.1,22.8,8.4,28.1,8.6"/>
<path class="st1" d="M82.4,77.6c-4,0.6-19,2.3-33.6-7C37.3,63.3,32.1,53.2,30.3,49l-10.5,5.6c2.3,4.9,7,12.8,15.8,19.6
	c16,12.2,33.8,11.4,38.8,11L82.4,77.6z"/>
<path class="st1" d="M59.6,61.9c3.9-2.1,10.6-6.4,16-14.2c8.6-12.1,8.6-24.8,8.5-29.3"/>
<path class="st1" d="M70.5,66.7c3.1-1.6,10.1-5.6,15.4-14c5.1-8.2,5.8-16.2,5.8-19.6"/>
<path class="st1" d="M51,53.3c3.9-2.3,11.7-7.7,17.5-17.8c6.4-11,6.8-21.5,6.7-26"/>
<path class="st1" d="M46,40.5c3.1-2.5,8.1-7.4,11.8-15C62.5,16,62.5,7.2,62.3,3"/>
<path class="st1" d="M272.1,54.6c2-1.7,5.7-5.4,8.1-11.3c2.5-6,2.4-11.3,2.1-14"/>
<g>
	<text transform="matrix(1 0 0 1 93.96 69.96)" class="st0 st2 st3">VOLLEYSHOP.COM</text>
</g>
</svg>
