<?xml version="1.0" encoding="UTF-8"?>
<svg id="_Слой_1" data-name="Слой 1" xmlns="http://www.w3.org/2000/svg" viewBox="0 0 1036.58 280.66">
  <defs>
    <style>
      .cls-1 {
        fill: #fff;
      }

      .cls-2 {
        fill: none;
        stroke: #1d1d1b;
        stroke-miterlimit: 10;
      }

      .cls-3 {
        fill: #1d1d1b;
        font-family: CenturyGothic-Bold, 'Century Gothic';
        font-size: 51.24px;
        font-weight: 700;
      }
    </style>
  </defs>
  <g>
    <path class="cls-1" d="m800.85.5c77.23,0,139.83,62.6,139.83,139.83s-62.6,139.83-139.83,139.83-139.83-62.61-139.83-139.83c0-38.39,15.47-73.17,40.52-98.44,25.33-25.56,60.47-41.39,99.31-41.39Z"/>
    <path class="cls-2" d="m940.68,140.33c0,77.22-62.6,139.83-139.83,139.83s-139.83-62.61-139.83-139.83c0-38.39,15.47-73.17,40.52-98.44,25.33-25.56,60.47-41.39,99.31-41.39,77.23,0,139.83,62.6,139.83,139.83Z"/>
  </g>
  <path class="cls-2" d="m730.49,19.46c11.73,8.67,28.09,22.97,42.39,44.59,20.07,30.37,25.96,59.89,27.97,76.27"/>
  <path class="cls-2" d="m681.08,212.52c3.4-8.68,17.79-42.42,55.36-61.18,27.79-13.88,53.69-12.29,64.41-11.02"/>
  <path class="cls-2" d="m929.27,195.72c-6.79,2.31-43.02,13.89-80.96-5.39-30.67-15.58-43.76-41.81-47.46-50"/>
  <path class="cls-2" d="m763.8,51.55c-7.77-1.4-32.8-4.88-59.12,9.12-21.81,11.6-32.73,28.95-36.8,36.29"/>
  <path class="cls-2" d="m783.9,83.28c-12.34-1.27-36.41-2.05-63.63,8.73-33,13.07-51.75,35.67-59.18,45.76"/>
  <path class="cls-2" d="m796.43,117.1c-9.72-2.19-43.71-8.61-79.93,9.66-30.75,15.51-45.7,40.02-50.83,49.47"/>
  <path class="cls-2" d="m695.36,186.69c8.16,13.76,26.78,40.96,61.25,61.87,34.95,21.21,68.16,25.01,84.16,25.81"/>
  <path class="cls-2" d="m718.87,162.29c7,14.53,21.06,38.45,47.33,58.6,47.77,36.64,101.16,34.15,115.99,32.95"/>
  <path class="cls-2" d="m750.19,145.6c5.54,12.49,20.97,42.74,55.34,64.56,43.93,27.89,88.54,22.83,100.64,21.06"/>
  <path class="cls-2" d="m837.79,184.35c11.75-6.35,31.63-19.18,48.02-42.45,25.58-36.33,25.85-74.28,25.33-87.55"/>
  <path class="cls-2" d="m870.55,198.49c9.23-4.64,30.32-16.79,46.04-41.94,15.39-24.62,17.29-48.35,17.52-58.69"/>
  <path class="cls-2" d="m812.03,158.6c11.63-6.97,35.05-23.13,52.47-53.12,19.14-32.95,20.4-64.28,20.16-77.86"/>
  <path class="cls-2" d="m797.23,120.31c9.27-7.64,24.3-22.08,35.36-44.78,14-28.73,14.04-55.09,13.24-67.63"/>
  <path class="cls-2" d="m780.31,76.37c6.01-5.22,17-16.16,24.2-33.7,7.38-17.97,7.08-33.86,6.4-41.82"/>
  <text class="cls-3" transform="translate(577.51 158.61)"><tspan x="0" y="0">VOLLEYSHOP.COM</tspan></text>
</svg>