<?xml version="1.0" encoding="utf-8"?>
<!-- Generator: Adobe Illustrator 27.4.1, SVG Export Plug-In . SVG Version: 6.00 Build 0)  -->
<svg version="1.1" id="Слой_1" xmlns="http://www.w3.org/2000/svg" xmlns:xlink="http://www.w3.org/1999/xlink" x="0px" y="0px"
	 viewBox="0 0 228.3 196" style="enable-background:new 0 0 228.3 196;" xml:space="preserve">
<style type="text/css">
	.st0{fill:#486848;}
	.st1{fill:#FFFFFF;}
</style>
<g id="Слой_4">
	<path class="st0" d="M85.9,93.7c-0.6,5.5-1.8,10.5-5.4,14c-14.1,13.7-12,9.8-18.4,12.7c-3.5,1.6-8.3,1.6-12.5,1.5
		c-0.1,0-0.2,0-0.2,0c0.1,0,0.2,0,0.2-0.1v-19.9c0.3-0.1,0.5-0.3,0.7-0.5l15.4-14.9c0.9-0.9,0.9-2.3,0-3.2c-0.9-0.9-2.4-0.9-3.3,0
		L49.6,95.7V56c0-1-0.8-1.9-1.9-1.9c-1.2,0-2.2,1-2.3,2.2v24.2L38,74c-0.4-0.4-1-0.6-1.5-0.6c-0.6,0-1.3,0.3-1.8,0.7
		c-0.8,0.9-0.8,2.3,0.2,3.2l9.9,8.7c0.2,0.2,0.4,0.3,0.6,0.4v35.3c-0.4,0-0.8,0-1.2,0c-8,0-19.1-4.5-25.8-12
		c-6.2-7-6.1-11.1-7.6-23.7c-0.4-3.6,1.2-12.1,2.4-17.3c2.7-11.8,4-18.6,9-31.5c2.8-7.1,12.4-23.9,26.4-26.4
		c1.4-0.2,6.1,0.4,8.7,2.4c1.7,1.3,2.7,2.3,6.2,6.3c2.3,2.7,11.5,11.9,19.4,46.9C87.8,88,86.7,86,85.9,93.7z"/>
	<path class="st1" d="M49.6,121.8L49.6,121.8c-0.1,0.1-0.2,0.1-0.2,0.1C49.5,121.8,49.5,121.8,49.6,121.8z"/>
	<path class="st1" d="M65.7,86.5l-15.4,14.9c-0.2,0.2-0.4,0.4-0.7,0.5v19.9c-0.1,0-0.1,0-0.2,0.1c-1.4-0.1-2.8-0.1-4-0.1V86.4
		c-0.2-0.1-0.4-0.2-0.6-0.4l-9.9-8.7c-1-0.9-1-2.3-0.2-3.2c0.5-0.5,1.1-0.7,1.8-0.7c0.6,0,1.1,0.2,1.5,0.6l7.4,6.5V56.3
		c0.1-1.2,1.1-2.2,2.3-2.2c1.1,0,1.9,0.9,1.9,1.9v39.7l12.8-12.4c0.9-0.9,2.4-0.9,3.3,0S66.6,85.6,65.7,86.5z"/>
	<path class="st0" d="M219.2,140.8c0,0.5-0.3,1-0.7,1.4s-0.9,0.6-1.4,0.6H14.9c-1.1,0-1.9-0.9-1.9-2c0-0.6,0.2-1.1,0.6-1.4
		c0.3-0.4,0.8-0.6,1.3-0.6H47c-0.4-0.1-0.7-0.3-1-0.6c-0.2-0.3-0.5-0.6-0.6-0.9l0,0c-0.1-0.2-0.1-0.5-0.1-0.7v-14.9
		c1.2,0,2.5,0.1,4,0.1c0.1,0,0.2,0,0.2,0v15.4c0,0.5-0.1,1.1-0.4,1.5h69c-3.6-0.6-6.4-3.7-6.4-7.5V73.9c0-4.2,3.4-7.6,7.6-7.6h65.1
		c4.2,0,7.6,3.4,7.6,7.6v57.4c0,3.8-2.8,6.9-6.4,7.5h31.5C218.3,138.8,219.2,139.7,219.2,140.8z"/>
	<path class="st0" d="M209.6,73.4c-2.9,3.3-7.8,3.6-11,0.7l-45.9-40.4l-46,40.4c-3.3,2.9-8.2,2.6-11-0.7c-2.8-3.2-2.5-8.1,0.7-11
		l51.1-44.9c0.1-0.1,0.2-0.1,0.3-0.2c0,0,0.1,0,0.1-0.1c0.3-0.3,0.7-0.5,1.1-0.7l0,0c0.8-0.4,1.6-0.7,2.5-0.8c0.1,0,0.3,0,0.4-0.1
		c0.1,0,0.2,0,0.2,0c0.3,0,0.7,0,1.1,0c0.1,0,0.2,0,0.2,0c0.1,0,0.3,0,0.4,0.1c0.9,0.1,1.7,0.4,2.5,0.8l0,0c0.4,0.2,0.7,0.4,1.1,0.7
		c0,0,0.1,0,0.1,0.1c0.1,0.1,0.2,0.1,0.3,0.2l51.1,44.9C212.1,65.3,212.4,70.2,209.6,73.4z"/>
	<path class="st1" d="M63.5,119.8L63.5,119.8z"/>
	<path class="st0" d="M47,138.8h-1.1c-0.3-0.4-0.4-0.9-0.4-1.5c0.1,0.4,0.3,0.7,0.6,0.9C46.3,138.5,46.6,138.7,47,138.8z"/>
	<path class="st0" d="M49.6,121.8L49.6,121.8c-0.1,0.1-0.2,0.1-0.2,0.1C49.5,121.8,49.5,121.8,49.6,121.8z"/>
	<g>
		<g>
			<path class="st0" d="M30.4,172.6h-1.6c-0.1-0.6-0.2-1.5-0.2-3.5c-1.2,2.7-3.3,3.8-6.7,3.8c-5.8,0-8.5-5-8.5-11.3
				c0-6.4,3.2-11.5,9.3-11.5c4.4,0,7,2.3,7.8,6.3h-1.9c-0.8-2.9-2.5-4.6-5.9-4.6c-4.9,0-7.2,4.2-7.2,9.8c0,5,2,9.6,6.7,9.6
				c5.4,0,6.3-3.7,6.3-8.4v-0.1h-6.2v-1.8h8.2C30.4,161.9,30.4,172.5,30.4,172.6z"/>
			<path class="st0" d="M38.8,162.1v10.5h-2v-22.2h7.3c3.8,0,6.4,1.9,6.4,5.6c0,3.3-2,4.7-3.7,5.2c2.4,0.7,3.4,2.6,3.4,5.7v0.3
				c0,2.1,0,4.1,0.3,5.4h-2c-0.3-0.9-0.4-3.2-0.4-5.3v-0.4c0-3.4-1.2-4.8-5.2-4.8H38.8z M38.8,160.4h4.4c3.2,0,5.3-0.9,5.3-4.3
				c0-2.5-1.6-4-4.6-4h-5.1L38.8,160.4L38.8,160.4z"/>
			<path class="st0" d="M68.5,161.8H58.4v9.1h11.1l-0.3,1.7H56.5v-22.2H69v1.7H58.4v7.9h10.1V161.8L68.5,161.8z"/>
			<path class="st0" d="M86.8,161.8H76.6v9.1h11.1l-0.3,1.7H74.7v-22.2h12.6v1.7H76.6v7.9h10.1v1.8H86.8z"/>
			<path class="st0" d="M92.9,172.6v-22.2h2.7c9.9,16.7,11.1,18.8,11.6,19.8l0,0c-0.2-3.1-0.2-6.6-0.2-10.2v-9.5h1.9v22.2h-2.4
				c-10.5-18-11.2-19.2-11.7-20.2l0,0c0.2,2.9,0.1,6.6,0.1,10.5v9.7L92.9,172.6L92.9,172.6z"/>
			<path class="st0" d="M124.8,150.4h7.1c4.1,0,6.9,2.1,6.9,5.9c0,4.2-2.9,6.3-7.2,6.3h-4.8v10h-2V150.4L124.8,150.4z M126.8,160.9
				h4.8c3.1,0,5.2-1,5.2-4.5c0-2.9-2.1-4.3-5.2-4.3h-4.7L126.8,160.9L126.8,160.9z"/>
			<path class="st0" d="M143.9,150.4h2v20.4h11l-0.3,1.7H144L143.9,150.4L143.9,150.4z"/>
			<path class="st0" d="M163.4,165.2l-2.4,7.4h-2c2.1-6.3,5-15,7.4-22.2h2.4l7.7,22.2h-2.1l-2.5-7.4H163.4z M171.4,163.4
				c-2.1-6.2-3.4-9.6-3.8-11.2h-0.1c-0.6,2.7-1.9,6.1-3.6,11.2H171.4z"/>
			<path class="st0" d="M196.5,166.4c-0.7,3.4-2.9,6.5-7.9,6.5c-6.3,0-8.7-4.9-8.7-11.6c0-5.6,2.6-11.2,8.9-11.2
				c4.7,0,7.1,2.8,7.7,6.6h-2c-0.6-2.9-2.3-4.9-5.7-4.9c-4.7,0-6.7,4.5-6.7,9.5c0,4.9,1.5,9.9,6.7,9.9c3.4,0,5-1.9,5.8-4.8H196.5
				L196.5,166.4z"/>
			<path class="st0" d="M213.9,161.8h-10.1v9.1h11.1l-0.3,1.7h-12.8v-22.2h12.5v1.7h-10.6v7.9h10.1L213.9,161.8L213.9,161.8z"/>
		</g>
	</g>
	<path class="st0" d="M217.1,185.2H14.9c-1.1,0-1.9-0.9-1.9-2l0,0c0-1.1,0.9-2,1.9-2h202.3c1.1,0,2,0.9,2,2l0,0
		C219.1,184.3,218.2,185.2,217.1,185.2z"/>
</g>
</svg>
